<svg xmlns="http://www.w3.org/2000/svg" xml:space="preserve" width="2000" height="1500" data-id="lg_Q0UQsCZuVCYoZx1agJ" data-version="1" viewBox="0 0 2000 1500"><path fill="#e1f0f3" stroke="transparent" d="M0 0h2000v1500H0z"/><g data-padding="20"><g transform="translate(-1222.172 -911.018)scale(2.14212)"><path fill="#0074d9" stroke="ivory" stroke-width="5" d="M-252.759 183.555a140.58 68 0 1 0 0 136 140.58 68 0 1 0 0-136Z" paint-order="stroke" transform="matrix(0 -1.96 3.22 0 227.36 280)"/><path fill="#0074d9" stroke="#e9e9df" stroke-width="3.5" d="M-275.226 207.513a140.58 68 0 1 0 0 136 140.58 68 0 1 0 0-136Z" paint-order="stroke" transform="matrix(0 -1.8 2.94 0 225.3 281.7)"/><path fill="none" stroke="ivory" stroke-width="3.5" d="M-293.14 230.896a140.58 68 0 1 0 0 136 140.58 68 0 1 0 0-136Z" paint-order="stroke" transform="matrix(0 -1.69 2.71 0 224.8 281.93)"/><rect width="304.243" height="106.22" x="657.887" y="442.297" fill="none" rx="0" ry="0" transform="translate(221.95 336.06)"/><path fill="ivory" d="m897.198 844.897.1 3.38.18 3.76v.28q5.36 2.17 10.72 2.17t8.51-2.49q3.15-2.5 3.15-7.29 0-2.82-4.05-6.34-4.04-3.53-8.93-6.35-4.88-2.82-8.93-6.44-4.04-3.62-4.04-6.63 0-6.58 6.07-12.73 6.06-6.16 13.3-8.32 8.08 0 15.32 1.6v1.88q-4.89 4.51-5.45 13.91h-2.35q0-4.98-.47-8.74-4.05-1.88-8.98-1.88-4.94 0-8.04 2.06-3.1 2.07-3.1 5.93 0 2.82 4.04 6.29 4.04 3.48 8.89 6.26 4.84 2.77 8.88 6.34t4.04 6.58q0 6.86-6.06 13.91-6.07 7.05-13.21 9.87-7.43 0-13.82-1.69-1.97.94-3.95 2.82l-1.41-1.32q6.49-6.86 7.24-18.14h2.35Zm69.28-11.75q0-10.53-4.32-10.53-3.67 0-8.65 4.61-4.98 4.6-6.68 8.55 0 13.63 1.04 21.9 2.54.57 5.92 1.79l-.19 1.78q-5.26-.75-9.96-.75t-9.5.57l-.28-1.79q2.82-1.22 5.55-1.88.84-6.39.84-14.76v-7.89q0-8.65-.65-15.33-2.26-.75-5.08-.75v-1.97q6.02-.28 12.69-1.79l.66.38q-1.04 6.48-1.04 14.66l.38.1q3.2-4.42 8.32-9.07 5.12-4.66 9.26-6.07 5.73 0 7.42 5.17 1.13 3.67 1.13 9.03v1.88l-.47 26.41q2.73.66 5.55 1.88l-.28 1.79q-4.52-.57-7.66-.57-3.15 0-5.97.19v-1.32q1.5-7.33 1.88-24.15.09-.94.09-2.07m19.93 10.81q0-9.78 5.26-17.91 5.27-8.13 14.1-11.14 6.3 0 13.16 1.98 1.32-1.98 2.16-4.99l1.98.57q-2.07 8.46-2.07 29.89 0 9.59.66 15.04 2.25.75 5.07.75v1.98q-6.01.28-12.69 1.78l-.65-.37q1.03-6.49 1.03-14.67l-.38-.09q-3.29 4.7-7.8 9.12-4.51 4.41-8.55 6.01-5.17 0-8.23-5.73-3.05-5.74-3.05-12.22m7.52-4.23q0 4.6 1.64 9.54 1.65 4.93 4.75 4.93 3.29 0 7.99-4.7t6.11-8.46q0-14-.66-18.04-4.98-2.26-9.63-2.26-4.66 0-7.1 2.26-3.1 7.14-3.1 16.73m79.63-6.86q0 9.77-5.27 17.9-5.26 8.13-14.1 11.14-5.07 0-9.21-.94 0 10.25.66 15.14 4.23 1.03 7.42 2.44l-.28 1.88q-5.83-1.13-9.82-1.13-4 0-9.35.47l-.38-1.88q2.82-.66 4.79-1.69.94-8.08.94-26.41v-15.33q0-9.58-.65-15.04-2.26-.75-5.08-.75v-1.97q6.02-.28 12.69-1.79l.66.38q-1.04 6.48-1.04 14.66l.38.1q3.29-4.7 7.8-9.12t8.56-6.02q5.17 0 8.22 5.74 3.06 5.73 3.06 12.22m-7.52 4.23q0-4.61-1.65-9.54-1.64-4.94-4.75-4.94-3.29 0-7.99 4.7t-6.11 8.46q0 14.01.66 18.05 4.98 2.25 9.64 2.25 4.65 0 7.09-2.25 3.11-7.15 3.11-16.73m55.73-4.23q0 9.77-5.27 17.9-5.26 8.13-14.1 11.14-5.07 0-9.21-.94 0 10.25.66 15.14 4.23 1.03 7.43 2.44l-.29 1.88q-5.82-1.13-9.82-1.13-3.99 0-9.35.47l-.38-1.88q2.82-.66 4.8-1.69.94-8.08.94-26.41v-15.33q0-9.58-.66-15.04-2.26-.75-5.08-.75v-1.97q6.02-.28 12.69-1.79l.66.38q-1.03 6.48-1.03 14.66l.37.1q3.29-4.7 7.8-9.12 4.52-4.42 8.56-6.02 5.17 0 8.22 5.74 3.06 5.73 3.06 12.22m-7.52 4.23q0-4.61-1.65-9.54-1.64-4.94-4.74-4.94-3.29 0-7.99 4.7t-6.11 8.46q0 14.01.65 18.05 4.99 2.25 9.64 2.25t7.1-2.25q3.1-7.15 3.1-16.73m28.29-22.19.66.38q-1.79 10.9-1.79 27.82 0 11.09 3.95 11.09 3.39 0 8.32-4.74 4.94-4.75 6.35-8.42 0-13.63-1.04-21.9-2.54-.56-5.92-1.78l.19-1.79q5.26.75 9.96.75t9.5-.56l.28 1.78q-2.82 1.23-5.55 1.88-.84 6.4-.84 14.76v7.9q0 14.94.65 21.62-1.78 5.17-7.52 10.1-5.73 4.94-11.37 6.91-8.65 0-15.79-2.72v-1.23q3.48-4.13 3.95-10.52h1.97q0 3.66.19 5.73 5.26 2.91 12.03 2.91 3.76 0 6.11-2.25 2.16-5.74 2.68-10.39t.52-15.37l-.38-.09q-2.82 4.23-7.8 8.98-4.98 4.74-8.93 6.15-5.45 0-7.05-5.17-1.22-3.66-1.22-9.02v-1.88l.47-26.42q-2.26-.75-5.08-.75v-1.97q5.92-.28 12.5-1.79"/><rect width="136.001" height="24.86" x="742.007" y="482.977" fill="none" rx="0" ry="0" transform="translate(221.83 422.13)"/><path fill="ivory" d="M965.978 928.687q-.83 0-1.3-.43-.46-.43-.46-1.05 0-.46.24-.69.25-.23.53-.23.42 0 .6.22.17.22.26.51.09.3.27.52.19.22.61.22.81 0 1.61-.65.79-.65 1.29-1.78.51-1.13.44-2.54l-.33-7.9q-.02-.57-.19-.8-.18-.23-.44-.23-.49 0-.93.58t-.72 2.21q-.07.29-.29.29-.31 0-.24-.4.26-1.52.73-2.37.48-.86 1.02-1.21.54-.36 1-.36.68 0 1.08.48.39.47.44 1.61l.3 8.45q0 .16.1.19t.19-.1q.77-1.08 1.4-2.23.62-1.16 1-2.28.37-1.12.37-2.07 0-.92-.2-1.46-.19-.54-.4-.91-.21-.38-.21-.82 0-.86.75-.86 1.05 0 1.05 2.34 0 1.27-.44 2.78t-1.2 3.06-1.74 2.96q-.97 1.4-2.04 2.53-1.07 1.12-2.14 1.77-1.06.65-2.01.65m12.92-4.54q-1.37 0-2.16-1.13t-.79-3.07q0-1.43.46-2.75t1.22-2.35q.76-1.04 1.69-1.64.94-.61 1.89-.61 1.36 0 2.15 1.13.79 1.12.79 3.08 0 1.43-.46 2.75t-1.22 2.35-1.69 1.64q-.94.6-1.88.6m-.05-.52q.71 0 1.38-.69.67-.68 1.22-1.8t.88-2.5q.33-1.37.33-2.76 0-2.75-1.43-2.75-.68 0-1.37.67-.68.67-1.22 1.8-.54 1.12-.87 2.49-.33 1.38-.33 2.76 0 2.78 1.41 2.78m8.31.52q-.82 0-1.12-.73-.29-.74.04-1.95l1.74-6.38q.17-.64.08-.99-.08-.35-.39-.35-.51 0-1.03.77-.51.77-.89 2.13-.06.24-.28.24-.31 0-.2-.44.51-1.84 1.33-2.85.83-1 1.82-1 .79 0 1.05.73.27.73-.09 1.98l-1.76 6.38q-.41 1.52.29 1.52.44 0 1.01-.6.57-.59 1.2-1.62.63-1.04 1.24-2.36.62-1.32 1.13-2.77.5-1.45.83-2.88.07-.24.31-.24h.88q.31 0 .24.28l-2.07 8.85q-.24 1.03.38 1.03.92 0 1.93-2.79.09-.29.31-.29.13 0 .19.11.05.11-.01.29-.6 1.87-1.41 2.9t-1.72 1.03q-1.58 0-1.05-2.31l.57-2.44q.04-.15-.06-.17-.09-.03-.16.11-1.28 2.64-2.35 3.72-1.08 1.09-1.98 1.09m10.94-.19h-.9q-.31 0-.24-.29l2.09-8.78q.11-.48.03-.76-.08-.27-.41-.27-.39 0-.87.58-.47.58-1.06 2.21-.09.29-.31.29-.33 0-.18-.4.49-1.52 1.03-2.37.54-.86 1.09-1.21.55-.36 1.01-.36.72 0 1.03.54t.02 1.77l-.24 1.04q-.02.15.07.17.09.03.15-.11.84-1.91 1.52-2.66t1.56-.75q.6 0 .89.32.3.32.3.87t-.26.88q-.27.33-.69.33-.35 0-.5-.17-.16-.18-.23-.41-.08-.23-.17-.41-.09-.17-.28-.17-.33 0-.86.83-.53.84-1.14 2.26-.6 1.42-1.16 3.18t-.98 3.6q-.07.25-.31.25m12.08.19q-.73 0-1.53-.22t-1.22-.55q-.15-.13-.13-.39l.48-2.88q.05-.29.27-.29.24 0 .24.31l.04 1.05q.05 1.26.61 1.84t1.37.58q.71 0 1.21-.45.51-.45.51-1.33 0-.5-.16-.93-.15-.43-.48-.93-.33-.49-.9-1.2-.75-.96-1.11-1.66-.37-.69-.37-1.44 0-1.38.87-2.22t2.21-.84q.6 0 1.16.18t.93.53q.2.15.14.39l-.62 2.95q-.07.29-.26.29-.2 0-.25-.31l-.06-1.06q-.09-1.32-.34-1.89-.26-.57-1.05-.57-.7 0-1.14.48-.44.49-.44 1.17 0 .73.39 1.33.4.61 1.08 1.53.9 1.19 1.22 1.89.32.71.32 1.43 0 .93-.41 1.65-.4.73-1.08 1.15-.69.41-1.5.41m5.72.02q-.73 0-1.03-.54-.31-.54-.03-1.77l2.8-11.99q.11-.4.01-.55-.1-.16-.41-.18l-.66-.07q-.33-.02-.28-.28.04-.2.3-.24.8-.14 1.41-.32.62-.19.99-.5.18-.13.33-.13.27 0 .2.33l-3.26 13.95q-.11.48-.03.76.08.27.41.27.39 0 .87-.58.47-.58 1.06-2.21.09-.29.31-.29.33 0 .18.4-.46 1.49-1.03 2.36-.56.87-1.11 1.22-.55.36-1.03.36m7.05-.02q-1.36 0-2.16-1.13-.79-1.13-.79-3.07 0-1.43.46-2.75.47-1.32 1.22-2.35.76-1.04 1.7-1.64.93-.61 1.88-.61 1.36 0 2.16 1.13.79 1.12.79 3.08 0 1.43-.46 2.75-.47 1.32-1.23 2.35-.75 1.03-1.69 1.64-.93.6-1.88.6m-.04-.52q.7 0 1.37-.69.67-.68 1.22-1.8t.88-2.5q.33-1.37.33-2.76 0-2.75-1.43-2.75-.68 0-1.36.67t-1.22 1.8q-.54 1.12-.87 2.49-.33 1.38-.33 2.76 0 2.78 1.41 2.78m7.62 5.07q-1.74 0-2.64-.64t-.9-1.52q0-.77.6-1.51.61-.73 2.24-1.68.24-.13.27-.3.03-.16-.21-.31-.61-.4-.74-.93-.12-.53.28-.75l1.67-.96q.22-.11.23-.28.01-.16-.23-.3-.59-.35-.89-1t-.3-1.42q0-1.18.59-2.21.58-1.02 1.56-1.66t2.19-.64q.5 0 .86.14.26.08.39-.18.38-.81.96-1.29.58-.47 1.22-.47.46 0 .71.24.26.24.26.66t-.24.68q-.25.27-.62.27-.29 0-.43-.11t-.25-.22-.35-.11q-.49 0-.77.55-.09.2-.05.36.05.17.18.34.57.75.57 1.89 0 1.04-.45 1.97-.45.94-1.23 1.59t-1.8.87q-.39.08-.71.2-.32.13-.8.43l-.88.53q-.33.2-.18.5.15.29.86.56l1.89.7q1.23.44 1.7 1.08.48.64.48 1.5 0 1.05-.7 1.82-.69.77-1.83 1.19-1.15.42-2.51.42m.86-11.2q0 1.01.29 1.46.3.45.85.45.71 0 1.31-.65.61-.64.98-1.67.37-1.02.37-2.12t-.28-1.51q-.29-.4-.86-.4-.68 0-1.3.64-.61.65-.99 1.67-.37 1.01-.37 2.13m-.62 10.65q.86 0 1.61-.29.75-.28 1.22-.81t.47-1.26q0-.72-.36-1.2-.36-.47-1.42-.86l-.42-.16q-.39-.15-.79-.11-.4.05-.75.22-1.19.66-1.6 1.23-.42.58-.42 1.26 0 .81.59 1.39.6.59 1.87.59m8.23-4.01q-.79 0-1.23-.68t-.44-2q0-1.25.35-2.52.35-1.26.97-2.41.61-1.14 1.39-2.02.79-.88 1.65-1.4.87-.52 1.73-.52.42 0 .79.17.38.16.62.52.13.19.26.19.14 0 .27-.19.24-.36.39-.46.16-.09.29-.09.29 0 .22.3l-1.96 8.43q-.33 1.43.44 1.43.51 0 .91-.68.41-.68.83-2.11.07-.25.29-.25.15 0 .19.14.05.13 0 .3-.41 2.07-1.12 2.96-.7.89-1.69.89-.86 0-1.22-.72-.37-.73-.08-1.98l.29-1.21q.04-.16-.06-.18t-.16.11q-1.21 2.22-2.15 3.1-.93.88-1.77.88m.55-1.12q.53 0 1.17-.64.63-.63 1.26-1.65.63-1.01 1.16-2.17.52-1.17.84-2.25t.32-1.82q0-1.35-.94-1.35-.58 0-1.21.52-.64.52-1.23 1.4-.58.88-1.05 1.99t-.76 2.31-.29 2.34q0 .77.19 1.05.19.27.54.27m9.09.65 2.09-8.78q.11-.48.03-.76-.08-.27-.41-.27-.39 0-.87.58-.47.58-1.06 2.21-.09.29-.31.29-.33 0-.18-.4.49-1.52 1.02-2.37.54-.86 1.09-1.21.55-.36 1.02-.36.72 0 1.03.54t.02 1.77l-.55 2.38q-.02.15.07.18.09.02.15-.11.86-1.79 1.65-2.83.79-1.05 1.5-1.49.7-.44 1.27-.44.82 0 1.19.66.38.66 0 2.03l-1.67 6.38q-.15.61-.02.92t.48.31q.44 0 .87-.58.43-.59.89-2.21.07-.25.29-.25.17 0 .21.14.03.13-.01.3-.42 1.5-.91 2.35-.48.84-.98 1.17-.49.33-1 .33-.79 0-1.18-.66-.4-.66-.05-2.04l1.7-6.38q.24-.86.07-1.19-.16-.33-.47-.33-.48 0-1.1.6-.62.61-1.25 1.65-.64 1.05-1.26 2.37-.61 1.32-1.11 2.75-.49 1.43-.8 2.79-.07.25-.31.25h-.9q-.31 0-.24-.29m21.12.48q-.8 0-1.19-.66-.4-.66-.05-2.04l1.7-6.38q.24-.86.07-1.19-.16-.33-.47-.33-.48 0-1.09.6-.6.61-1.25 1.65-.65 1.05-1.26 2.36-.6 1.31-1.11 2.75-.5 1.44-.81 2.8-.07.25-.31.25h-.92q-.31 0-.24-.29l3.21-13.79q.11-.4.01-.55-.1-.16-.41-.18l-.66-.07q-.33-.02-.28-.28.04-.2.3-.24.8-.14 1.41-.32.62-.19.99-.5.18-.13.33-.13.27 0 .2.33l-2.16 9.35q-.02.15.07.18.09.02.15-.11.88-1.81 1.68-2.84.79-1.04 1.48-1.48t1.27-.44q.81 0 1.18.66.38.66 0 2.03l-1.67 6.38q-.15.61-.02.92t.48.31q.44 0 .86-.58.42-.59.9-2.21.07-.25.29-.25.18 0 .21.14.03.13-.01.3-.42 1.5-.9 2.35-.49.84-.98 1.17-.5.33-1 .33m6.22 0q-1.16 0-1.87-.91-.7-.91-.7-2.58 0-1.46.51-2.89.52-1.43 1.36-2.59.83-1.17 1.83-1.87 1.01-.71 1.95-.71 1.04 0 1.49.5.45.49.45 1.33 0 .99-.7 1.97-.69.98-1.93 1.75t-2.92 1.14q-.48.11-.5.55-.02.16-.02.32v.32q0 1.25.42 1.89.43.64 1.18.64.84 0 1.62-.77t1.31-2.18q.06-.2.26-.2.13 0 .17.11.03.11-.01.27-.71 1.93-1.71 2.92t-2.19.99m-.81-5.69q-.05.15.05.25t.26.05q1.36-.37 2.28-1.13.93-.76 1.4-1.7.47-.95.47-1.85 0-.93-.72-.93-.64 0-1.39.75t-1.38 1.96q-.64 1.21-.97 2.6m7.94 5.5h-.9q-.31 0-.24-.29l2.09-8.78q.11-.48.03-.76-.08-.27-.41-.27-.39 0-.87.58-.47.58-1.06 2.21-.09.29-.31.29-.33 0-.18-.4.49-1.52 1.02-2.37.54-.86 1.09-1.21.55-.36 1.02-.36.72 0 1.03.54t.02 1.77l-.24 1.04q-.02.15.07.17.08.03.15-.11.84-1.91 1.52-2.66t1.56-.75q.59 0 .89.32t.3.87-.27.88q-.26.33-.68.33-.35 0-.5-.17-.16-.18-.24-.41-.07-.23-.16-.41-.09-.17-.29-.17-.33 0-.85.83-.53.84-1.14 2.26-.6 1.42-1.16 3.18t-.98 3.6q-.07.25-.31.25m8.24.19q-1.17 0-1.87-.91-.71-.91-.71-2.58 0-1.46.52-2.89t1.35-2.59q.84-1.17 1.84-1.87 1-.71 1.95-.71 1.03 0 1.48.5.45.49.45 1.33 0 .99-.69 1.97t-1.94 1.75q-1.24.77-2.91 1.14-.48.11-.51.55-.02.16-.02.32v.32q0 1.25.43 1.89t1.18.64q.83 0 1.61-.77.79-.77 1.31-2.18.07-.2.27-.2.13 0 .16.11.04.11-.01.27-.7 1.93-1.7 2.92t-2.19.99m-.82-5.69q-.04.15.06.25t.25.05q1.37-.37 2.29-1.13t1.4-1.7q.47-.95.47-1.85 0-.93-.73-.93-.63 0-1.38.75t-1.39 1.96-.97 2.6"/><rect width="68.491" height="24.86" x="775.762" y="482.977" fill="none" rx="0" ry="0" transform="translate(221.8 105.34)"/><path fill="ivory" d="M1001.518 607.357q-1.17 0-1.87-.91-.71-.92-.71-2.59 0-1.45.52-2.88t1.35-2.6q.84-1.16 1.84-1.87 1-.7 1.95-.7 1.03 0 1.48.49.45.5.45 1.33 0 .99-.69 1.97t-1.93 1.75q-1.25.77-2.92 1.15-.48.11-.51.55-.02.15-.02.32v.31q0 1.26.43 1.9.43.63 1.18.63.83 0 1.62-.77.78-.77 1.3-2.17.07-.2.27-.2.13 0 .16.11.04.11-.01.26-.7 1.94-1.7 2.93t-2.19.99m-.82-5.7q-.04.15.06.25t.25.06q1.37-.38 2.29-1.13.92-.76 1.4-1.71.47-.95.47-1.85 0-.92-.73-.92-.63 0-1.38.75-.75.74-1.39 1.95t-.97 2.6m8.2 5.71q-.73 0-1.53-.22t-1.22-.55q-.16-.13-.13-.4l.48-2.88q.04-.29.26-.29.25 0 .25.31l.04 1.06q.04 1.25.61 1.84.56.58 1.37.58.7 0 1.21-.45t.51-1.33q0-.51-.16-.94-.15-.43-.48-.92-.33-.5-.9-1.2-.75-.97-1.11-1.66-.37-.7-.37-1.44 0-1.39.87-2.23.87-.83 2.21-.83.6 0 1.16.17.56.18.93.53.2.16.13.4l-.61 2.95q-.07.28-.27.28-.19 0-.24-.31l-.06-1.05q-.09-1.32-.34-1.89-.26-.58-1.05-.58-.7 0-1.14.49-.44.48-.44 1.16 0 .73.39 1.34.4.6 1.08 1.52.9 1.19 1.22 1.9.32.7.32 1.43 0 .92-.41 1.65-.4.72-1.09 1.14-.68.42-1.49.42m6.33-.01q-.74 0-1.16-.6-.42-.59-.13-1.91l1.82-7.96q.07-.33-.26-.33h-.84q-.31 0-.31-.29 0-.15.11-.24t.27-.09h.79q.51 0 .59-.46l.53-2.36q.07-.24.31-.24h.9q.31 0 .24.29l-.55 2.44q-.06.33.27.33h1.25q.38 0 .38.29 0 .33-.47.33h-1.18q-.49 0-.6.46l-1.85 8.05q-.11.48.04.76.14.27.49.27.51 0 .94-.57t.91-2.18q.09-.28.29-.28.15 0 .19.13.05.13-.06.48-.42 1.5-.91 2.29-.5.79-1.01 1.09-.5.3-.99.3m5.1 0q-.46 0-.75-.3t-.29-.74q0-.57.4-.92t.84-.35.73.3q.3.29.3.73 0 .57-.4.93-.39.35-.83.35m13.4-.2h-6.63q-.37 0-.37-.22t.35-.59l3.61-4.14q.7-.81 1.55-1.79t1.61-2.07 1.25-2.2q.5-1.11.5-2.19 0-.95-.52-1.47-.52-.53-1.53-.53-.95 0-1.84.65t-1.46 2.21q-.11.31-.35.31-.16 0-.22-.14-.07-.13 0-.33.46-1.32 1.14-2.1t1.48-1.12q.79-.34 1.58-.34 1.52 0 2.41.81.89.82.89 2.18 0 1.17-.62 2.29-.61 1.12-1.57 2.2t-1.99 2.09-1.85 1.94l-2.42 2.72q-.17.2-.12.36.06.15.34.15h2.47q.85 0 1.39-.2t.95-.69q.41-.5.82-1.44l.44-.99q.11-.24.33-.24.33 0 .22.39l-1.18 4.07q-.07.24-.25.33-.17.09-.41.09m6.76.2q-1.61 0-2.31-1.46-.7-1.47-.7-3.89 0-1.25.29-2.73.3-1.47.85-2.91t1.31-2.64 1.68-1.91q.93-.72 1.96-.72 1.61 0 2.31 1.46.7 1.47.7 3.89 0 1.23-.29 2.7-.3 1.48-.85 2.92t-1.31 2.64-1.68 1.92q-.93.73-1.96.73m.11-.57q.73 0 1.35-.64.63-.64 1.16-1.72t.93-2.37q.41-1.3.7-2.64.28-1.35.43-2.52.14-1.18.14-1.99 0-1.68-.47-2.46-.48-.78-1.38-.78-.73 0-1.35.64-.63.64-1.16 1.71-.53 1.06-.93 2.37-.41 1.31-.7 2.64-.28 1.33-.42 2.52-.15 1.19-.15 2 0 .88.17 1.61.16.72.56 1.18.39.45 1.12.45m11.89.37h-6.62q-.37 0-.37-.22t.35-.59l3.61-4.14q.7-.81 1.55-1.79.84-.98 1.6-2.07t1.26-2.2q.49-1.11.49-2.19 0-.95-.51-1.47-.52-.53-1.53-.53-.95 0-1.84.65t-1.46 2.21q-.11.31-.36.31-.15 0-.22-.14-.06-.13 0-.33.47-1.32 1.15-2.1t1.47-1.12 1.59-.34q1.51 0 2.41.81.89.82.89 2.18 0 1.17-.62 2.29t-1.57 2.2q-.96 1.08-1.99 2.09-1.04 1.01-1.85 1.94l-2.42 2.72q-.18.2-.12.36.05.15.34.15h2.46q.86 0 1.4-.2t.95-.69q.4-.5.82-1.44l.44-.99q.11-.24.33-.24.33 0 .22.39l-1.19 4.07q-.06.24-.24.33t-.42.09m9.43 0h-4.2q-.33 0-.33-.22 0-.24.33-.29l1.03-.13q.48-.06.66-.23.18-.16.26-.58l.66-2.84q.07-.33-.26-.33h-4.47q-.35 0-.35-.26 0-.14.1-.29t.25-.37l7.62-10.08q.15-.22.39-.22h.44q.18 0 .21.1t-.1.27l-7.41 9.31q-.22.31.09.31h3.56q.29 0 .35-.27l1.01-4.35q.07-.22.31-.35l.86-.47q.18-.11.28-.04.09.07.05.24l-1.12 4.93q-.07.31.22.31h.97q.28 0 .22.26l-.18.71q-.07.26-.33.26h-.97q-.31 0-.37.31l-.66 2.86q-.09.46.01.63.1.16.54.23l.39.06q.2.02.27.1.06.08.06.17 0 .26-.39.26"/><path fill="ivory" fill-rule="evenodd" d="M1052.927 706.243a69.7 69.7 0 0 0 10.595 9.282c-.535-7.743 1.053-13.9 4.406-18.111 3.16-3.953 8.49-5.606 11.502-9.72-3.208.145-5.152.016-7.08-2.657-3.53 2.235-7.387-1.33-11.485-1.312.875-5.233.486-7.42.89-11.94 5.25 1.815 10.045 4.083 16.784 4.423.13-1.167-2.365-3.516-3.532-4.86-8.667 3.37-15-5.508-14.142-15.91 3.078-2.04 6.852-1.068 7.063 3.096 7.128.21 13.851 0 14.58-6.173 2.754-1.944 7.03-1.134 8.392 1.766.81.049.94-.55 1.782-.453.972-.18.162-2.171.437-3.078 3.79-.567 5.152 1.328 6.626 3.078 1.587-.6 1.506-2.916 2.203-4.407a27.5 27.5 0 0 1 7.5 4.86c1.96-.55 3.29-1.717 5.314-2.22v4.423c2.835-4.633 6.74-8.36 12.36-9.282 18.534-3.03 27.638 11.955 38.427 17.674 1.361-.405.778-2.754 1.782-3.532 1.701.08 3.24.017 4.407-.437.324 1.733.55 3.564 1.328 4.86-5.476 9.558-14.774.08-19.44-3.985.032 1.879.745 3.094.437 5.297-2.187-1.782-3.969-3.97-6.188-5.735-1.912 1.782-2.884 4.472-6.626 4.423 2.187-3.564 2.463-8.845-2.203-9.72.227 4.487-.81 7.727-4.86 7.938.86-5.832-1.183-8.83-5.735-9.266-.664 1.247-.777 3.045-.89 4.86-.714-2.463-5.023-3.402-7.939-2.204-2.43 1.88-.972 6.513 1.312 7.5 2.43-2.785 5.622-2.542 10.611-2.202-2.997.567-8.73 5.2-3.985 7.938 1.523-.373.762-3.062 3.094-2.64 1.053.712 1.49 2.057 1.782 3.53 11.535 2.917 31.17-4.794 35.316 5.736 2.366 5.977-1.215 12.182-4.86 15.017 3.127 4.73 5.85 7.695 5.751 13.252-.21 11.793-12.798 26.454-.89 34.894.81 5.217-3.37 5.46-4.86 8.392-.195 4.342 1.895 6.367 3.094 9.283-1.037 1.02-3.953.162-5.735.437v-1.766c-.6 2.058-3.37 1.944-6.189 1.782v-1.782c.033 1.88-5.2 1.928-5.734.454-.778 2.057-8.975 2.138-9.72 0-.567.94-5.622 2.835-5.75 0-3.614 3.078-5.93-.567-10.596.875 1.49-4.536 7.306-4.763 12.36-5.735-.097-4.115 1.49-8.1.891-11.05-1.328-6.43-11.016-8.957-9.266-18.548-12.766-.388-18.225 6.513-27.832 9.267-1.539 2.316-3.58 4.082-3.53 7.954 1.62 1.328 3.887 2.009 5.734 3.094-1.928 3.078-4.212 5.8-9.283 5.735-.923 3.337.907 6.998-.875 9.72-2.819.47-4.212-.486-5.735-1.312-.648.097-.162 1.296-.89 1.312-6.189.178-9.056-.761-14.143-.875-1.264-2.462 1.296-4.876 2.657-6.188 2.85-.243 6.69.518 8.83-.438 2.915-3.531 3.125-10.465.89-14.142-2.236-3.645-7.37-3.467-9.72-6.172-3.24 1.506-5.865 4.325-10.158 3.53-1.506-3.206-4.196-5.231-8.829-5.296-.777-2.463-.648-5.848-1.782-7.954-.972.324-.162 2.478-.437 3.53h-3.078c1.587 3.128-1.102 4.845-.89 7.939.13.907 1.198.875 1.327 1.782 1.83-.518 3.078-1.62 4.86-2.203 2.82 4.082-4.698 5.087-2.657 8.392-1.652.842-4.39.615-3.53 3.969h-3.533c-.227-4.05-2.09-6.464-5.75-7.064 0-1.927-.147-3.985.453-5.297l3.531 1.766c2.916-2.9-1.23-5.184.438-8.845-.195-.972-2.17-.162-3.078-.438-.357-2.106.68-2.835.421-4.86h2.657c-1.167-3.97-1.134-9.234-.875-12.36-4.698-1.33-7.533-11.033 0-11.486-.356-22.437-1.733-45.895 11.923-54.335q.745-.081.875.437c-3.143 15.714-2.722 34.992-2.64 53.898 2.883 2.3 5.102 7.484 1.328 10.595m-10.19-37.552c-.632 10.206-.454 24.38 1.328 30.05-.518.94-.907 2.026-1.328 3.079 1.54.68 4.034.389 6.188.454 1.345-1.556-1.215-2.058-.874-3.986.664-.94 1.911-1.312 1.765-3.078-.518-17.593.713-35.802 1.766-50.365-5.087 5.15-8.165 12.96-8.845 23.846m22.518 48.6c1.685 7.727 8.36 12.96 15.034 15.892.567-4.293-1.134-10.854.874-13.69 2.187 3.274-.453 9.203.454 14.128 3.775 3.499 5.702 16.977-.89 19.002-3.662 1.134-8.133-1.717-9.72 2.64a17.82 17.82 0 0 0 14.142 0c.777 1.005 3.11 2.755 4.86 1.33-.924-2.382-.6-7.34.437-9.267 3.515-.486 6.836-1.118 7.938-3.985-1.814-.972-4-1.588-5.28-3.078-.05-5.573 3.92-7.193 3.968-11.502 5.346-2.317 4.374-10.952 6.188-16.767 2.77 6.69-2.203 14.596-3.985 18.095 9.477-3.71 17.01-9.963 28.27-9.72 7.176.162 11.096 5.864 16.361 10.174 4.811 3.952 9.445 7.063 13.235 9.72v10.157c-3.385 1.912-9.622 3.32-10.594 6.172 2.057-1.847 5.718 1.393 7.5-1.766 1.345 2.997 4.698 1.215 6.642 0 .891.713.843 2.382 2.64 2.204.26-2.025-2.672-4.666-1.78-8.83.501-2.267 5.28-2.996 4.86-6.625-.115-1.167-2.658-2.657-3.517-3.97-6.35-9.72 5.136-24.364 3.97-34.894-.519-4.65-4.585-7.873-6.189-11.048 2.754-2.01 5.573-4.31 6.188-7.501 3.58-18.695-23.23-7.792-35.785-11.502-.162-1.296-.243-2.673-1.313-3.078-.259.778.52 2.592-.453 2.64-2.35-.583-4.018-.566-4.86-2.203-1.296-2.56 1.571-4.957.453-6.188-2.008-.373-1.036 2.22-2.656 2.22-9.396-.487-4.86-15.488 3.985-10.158.065-1.247-.389-3.03.875-3.094 6.01.016 8.391 3.677 9.282 8.829 1.588-3.256.86-8.845 2.203-12.36-15.973-6.027-30.115 10.108-18.549 21.189-1.75.777-2.754 5.15-.437 6.188-.049-1.944 1.54-2.268 3.078-2.657 7.808 8.198 38.961-4.924 41.52 5.75a11.34 11.34 0 0 1-1.312 7.065c-5.945 8.974-34.732 1.555-48.6 4.422-1.23.55 2.14 2.527.891 3.078h-4.86c-.324 1.96 1.33 4.245 0 5.75-2.462-1.084-4.649-2.43-7.063-3.53a24.3 24.3 0 0 1-5.75 4.422c.08-2.3-.908-3.515-1.313-5.313-2.38.437-1.944 3.645-3.985 4.422a8.1 8.1 0 0 0-1.329-3.97c-1.134 2.107-2.818 3.662-4.406 5.299-.275-1.2.55-3.5-.454-3.97-1.053 1.15-2.916 3.84-3.969 3.532-.567-1.652-.567-3.855-1.782-4.86-.793.405-3.434 1.23-3.969.438.324-1.62 1.8-4.374 1.33-5.298-7.907 5.022-15.019 13.69-12.36 26.066m73.773-62.726c3.078 1.166 6.934 3.483 4.86 8.39 2.35-.161 1.717-3.287 2.657-4.86 2.17 1.362 3.24 3.84 5.735 4.86.26-1.181-1.296-2.753 0-3.53 6.528 1.782 11.453 14.045 19.002 6.625-.632-1.134-.048-3.5-1.782-3.531-2.17.162-1.41 3.288-2.64 4.406-10.304-4.86-16.265-14.061-27.832-17.658Zm-43.724 11.485c-3.434-.696-6.026-2.235-9.72-2.656-.275 1.053.551 3.207-.437 3.53-2.025-.485-4.455-.55-5.75-1.765 1.15-.907 1.28-2.85 2.22-3.97 4.291-.614 7.402 2.3 10.156 1.767-.616-.453-2.625-1.75-1.782-2.203 3.337.81 5.508 2.754 10.173 2.203-.097-1.668-1.393-2.138-1.782-3.531 3.548-.891 8.764-.081 9.72-3.532-.729-2.495-3.24-3.24-5.297-4.423.13 2.625-1.7 3.289-3.532 3.97-1.296-1.2-1.733-3.257-4.406-3.08v2.642a37 37 0 0 0-5.298.89c-.162-3.11-3.92-3.644-6.188-2.22-.956 6.708-8.829 6.48-16.346 6.644-.29-1.782-1.1-3.046-1.766-4.423-1.539-.356-1.7.648-3.078.437-.583 8.878 5.508 17.772 13.236 12.798 2.154 2.852 4.244 5.768 6.626 8.408-2.754-.113.437 3.11 0 4.86h-8.392v-3.548c-4 0-6.885-1.88-10.595-.874.146 1.765-.794 2.446-.453 4.422 3.71.486 7.21 3.32 10.157.875 1.053 1.166 1.766 2.657 3.532 3.094 2.154-.972 5.767-1.474 6.642.89.89-1.02 1.571-2.251 2.64-3.093.39 1.23.551 2.69 1.33 3.532 1.295-.616 1.505-2.333 3.53-2.22.502 1.555.972 3.16 2.203 3.985.778-1.296 1.296-2.818 2.657-3.531a10.2 10.2 0 0 0 3.078 3.969 9.1 9.1 0 0 1 .891-4.407c1.33 0 1.507 1.134 2.657 1.313.486-.405.13-1.62 1.328-1.313 2.317 1.215 3.597 3.467 7.501 3.078-.113-5.022-3.337-6.966-6.626-8.83-.048 1.135-.81 1.557-1.328 2.205-.826-.924-1.199-2.317-3.078-2.204-1.329 4.763-4.439 7.89-7.08 2.657-.63.68-.583 2.058-1.312 2.64-1.604-1.247-5.28-4.454-3.548-6.171 1.701.502.94 3.483 3.095 3.53.907-.566.47-2.477 1.782-2.656 1.23 1.264 1.944 3.046 3.515 3.97-.324-1.345 1.215-.843.891-2.204-.55-1.28-3.596-1.717-2.203-3.531 1.636.275 1.782 2.025 3.531 2.203.162-1.296.243-2.69 1.33-3.078 1.15.6 1.505 2.009 3.077 2.203.518-.664.55-1.814 1.328-2.203 2.155 2.268 4.698 4.13 7.063 6.172.324-2.22-.745-3.078-.437-5.297-2.786-1.2-4.909-3.03-5.735-6.19-.275 1.07.551 3.209-.453 3.549-1.782-.86-2.252-3.046-4.407-3.548-.713.907-.34 2.9-1.328 3.548-.648-.664-.794-1.863-1.766-2.22-.049 1.135-.81 1.556-1.328 2.22q-.21-.891-1.329-.891c-.048.81-.29 1.474-.875 1.766-.94-.68-1.652-1.588-2.656-2.203a4.86 4.86 0 0 1-3.078 2.203c-1.118-1.215-5.055-3.208-2.22-4.423-.146 1.766 2.041 1.199 2.203 2.657 1.62-.308 2.155-1.67 3.548-2.203.292.875 1.167 1.166 2.203 1.312.81-2.786 2.738-.081 3.97-3.078-.017.745.34 1.134.89 1.312.713-.761.211-2.721 1.33-3.078 1.181 1.296 2.04 2.949 3.968 3.532.453-2.64.13-6.06 1.328-7.954 1.62 4.843 1.33 11.63 7.063 12.36-.89-7.193 1.782-11.73-1.782-17.22 1.248-1.556 3.078-2.544 3.11-5.298-5.507.648-4.454 7.906-12.376 6.189.113 1.798 1.507 2.316 1.782 3.969-3.37-.098-7.29.29-8.408 0 .616.032 1.734 1.717.891 1.765m16.783-5.75c4.018 5.232-.13 11.08 1.782 17.657-.81.114-2.219-.42-1.782.89.68 2.107 1.604 5.509-.437 6.643.648.648.713 1.928.875 3.078 2.69 2.139 5.961 1.053 9.72.89 12.992-.598 30.618 1.75 38.426-2.202 1.345-2.478 3.078-5.735 1.33-8.845-11.536-4.617-29.29 3.775-40.63-2.64-1.054.712-.503 3.029-1.329 3.968-2.82-1.782-4.65-6.35-2.204-9.72-2.802-2.592-4.082-8.748-3.53-13.251-.536 1.377-1.913 1.928-2.22 3.53m-30.473 4.424c1.02-.146 1.685.065 2.203.437v-2.203h-1.782q.081 1.183-.42 1.766m-7.518 12.36c-4.212.357-8.537-3.742-11.032-2.203 2.803 1.313 7.906 2.69 11.032 2.204m1.33 3.985c1.49-.276 4.097.567 4.86-.438-.649-.68-.714-1.944-.892-3.094-1.329.276-3.79-.567-4.407.438.972.194.162 2.17.438 3.078m7.063 8.829c-.437-.584-.729-1.33-1.312-1.766-.616 2.187-3.273 4.682-2.22 7.063.276-1.037 2.722.08 3.095-.875.275 1.49.324 3.224 1.328 3.97q1.944-2.48 4.423-4.407c.26 1.053-.567 3.19.437 3.53 1.215-1.295 2.106-2.915 3.532-3.984.664.81.47 2.479 1.328 3.094 1.134-1.344 1.588-3.402 3.078-4.422.972 2.122 1.393 4.81 3.094 6.188 1.215-1.442 2.997-2.3 4.423-3.531 1.587 1.215 3.612 1.976 5.297 3.078.292-1.458-.567-4.083.438-4.86h3.547c0-1.458-1.458-1.49-1.328-3.078-3.985 1.458-5.46-1.394-8.392-2.204-.89 1.896-1.62.713-3.094 0-.405 1.799-.437 3.97-1.328 5.298-1.345-1.458-2.22-3.37-3.97-4.423-1.085 1.264-1.57 3.143-3.093 3.985-.438-1.944-1.54-3.191-2.204-4.86-1.782.438-2.543 1.88-3.985 2.64.05-1.36-.194-2.43-.875-3.077-.793.81-1.198 2.04-2.219 2.64m-44.145 12.83c.842 1.086 2.722 1.135 3.078 2.658 5.897 2.17 14.71-.357 11.94-5.735-.34-.648-2.22-2.187-3.532-1.328-.454 2.073 1.766 1.458 1.312 3.53-1.507 3.176-9.785 2.075-11.032-.436.923-.843 2.333-1.2 2.203-3.078-2.446-2.463-4.779.875-3.969 4.406m4.406 5.75c1.944-.566 4.002.973 4.86 0-1.75-.452-2.268-2.137-4.86-1.765Zm8.846 11.05c3.645-.114 1.62 5.427 3.078 7.516 4.212.81 6.69 3.32 9.282 5.735 2.916-.632 5.395-1.668 7.063-3.531-2.527-1.88-3.888-4.958-5.734-7.517-2.333-6.788-10.06-10.546-14.143-14.127 1.993 2.69 1.976 8.068.454 11.924m-9.283-8.392c1.426 1.07 4.423.583 5.751 1.766 1.166-3.37-4.779-3.354-5.75-1.766m.436 3.969c2.398-.324 3.58.55 5.751.454-.453-2.22-3.272-2.042-5.75-2.22Zm.891 1.782c-.097.826.486.972.438 1.766 1.344-.292 3.807.55 4.422-.454-1.377-.826-2.98-2.284-4.86-1.328m-2.656 5.297c.064 1.264 3.03-.39 3.094.875.146 2.057 0 3.823-.875 4.86 3.532 1.57-.016 9.477-3.532 6.626 1.361 3.207 5.346 3.79 5.298 8.39 1.685.358.567-2.09.875-3.077.923-.275 2.916.535 3.094-.453-.875-.454-1.88-.762-2.203-1.782 2.656-.114 3.936-1.653 5.297-3.078-1.685-.065-2.122 1.118-3.532 1.328-.712-1.652-2.754-1.96-3.094-3.985 1.134-3.63 1.75-4.78.875-8.83h3.078v-3.077a11.34 11.34 0 0 0-8.392 2.203m95.872 18.533c.713 3.353-.13 9.023-1.782 12.798-1.944 1.57-6.642.437-8.375 2.22 5.913 1.457 10.45-.52 16.783 1.312-.21-3.467-1.28-6.075-1.329-9.72.908-2.754 3.76-3.597 4.86-6.173-.745-1.182-4.082.243-4.86-.89a8.42 8.42 0 0 1 1.33-7.94c-5.023-3.676-7.826-9.557-15.91-10.172-1.7 8.78 7.938 12.215 9.283 18.565m7.063-1.328c1.49.275 4.115-.567 4.86.437a9.7 9.7 0 0 0-.437 3.985c-4.893-.745-5.038 7.29-3.094 11.47 2.527-2.916 6.642-4.245 10.61-5.735v-8.83c-4.179-1.88-7.079-5.021-11.048-7.08-1.36.73-1.895 4.068-.89 5.753m-132.643-33.263a69.7 69.7 0 0 1-10.595 9.282c.535-7.743-1.053-13.9-4.406-18.111-3.159-3.953-8.489-5.606-11.502-9.72 3.208.145 5.152.016 7.08-2.657 3.531 2.235 7.387-1.33 11.485-1.312-.875-5.233-.486-7.42-.89-11.94-5.25 1.815-10.045 4.083-16.784 4.423-.13-1.167 2.365-3.516 3.532-4.86 8.667 3.37 15-5.508 14.142-15.91-3.078-2.04-6.852-1.068-7.063 3.096-7.128.21-13.85 0-14.58-6.173-2.754-1.944-7.03-1.134-8.392 1.766-.81.049-.94-.55-1.782-.453-.972-.18-.162-2.171-.437-3.078-3.79-.567-5.152 1.328-6.626 3.078-1.587-.6-1.506-2.916-2.203-4.407a27.5 27.5 0 0 0-7.5 4.86c-1.96-.55-3.29-1.717-5.314-2.22v4.423c-2.835-4.633-6.74-8.36-12.36-9.282-18.534-3.03-27.638 11.955-38.427 17.674-1.36-.405-.778-2.754-1.782-3.532-1.7.08-3.24.017-4.407-.437-.324 1.733-.55 3.564-1.328 4.86 5.476 9.558 14.774.08 19.44-3.985-.032 1.879-.745 3.094-.437 5.297 2.187-1.782 3.97-3.97 6.188-5.735 1.912 1.782 2.884 4.472 6.626 4.423-2.187-3.564-2.463-8.845 2.203-9.72-.227 4.487.81 7.727 4.86 7.938-.859-5.832 1.183-8.83 5.735-9.266.664 1.247.777 3.045.89 4.86.714-2.463 5.023-3.402 7.94-2.204 2.43 1.88.971 6.513-1.313 7.5-2.43-2.785-5.622-2.542-10.61-2.202 2.996.567 8.73 5.2 3.984 7.938-1.523-.373-.762-3.062-3.094-2.64-1.053.712-1.49 2.057-1.782 3.53-11.535 2.917-31.17-4.794-35.316 5.736-2.366 5.977 1.215 12.182 4.86 15.017-3.127 4.73-5.849 7.695-5.75 13.252.21 11.793 12.797 26.454.89 34.894-.81 5.217 3.37 5.46 4.86 8.392.194 4.342-1.896 6.367-3.095 9.283 1.037 1.02 3.953.162 5.735.437v-1.766c.6 2.058 3.37 1.944 6.19 1.782v-1.782c-.034 1.88 5.2 1.928 5.733.454.778 2.057 8.975 2.138 9.72 0 .567.94 5.622 2.835 5.751 0 3.613 3.078 5.93-.567 10.595.875-1.49-4.536-7.306-4.763-12.36-5.735.097-4.115-1.49-8.1-.89-11.05 1.327-6.43 11.015-8.957 9.265-18.548 12.766-.388 18.225 6.513 27.832 9.267 1.54 2.316 3.58 4.082 3.531 7.954-1.62 1.328-3.888 2.009-5.735 3.094 1.928 3.078 4.212 5.8 9.283 5.735.923 3.337-.907 6.998.875 9.72 2.82.47 4.212-.486 5.735-1.312.648.097.162 1.296.89 1.312 6.19.178 9.056-.761 14.143-.875 1.264-2.462-1.296-4.876-2.657-6.188-2.85-.243-6.69.518-8.829-.438-2.916-3.531-3.126-10.465-.89-14.142 2.235-3.645 7.37-3.467 9.72-6.172 3.24 1.506 5.864 4.325 10.157 3.53 1.506-3.206 4.196-5.231 8.83-5.296.776-2.463.647-5.848 1.781-7.954.972.324.162 2.478.437 3.53h3.078c-1.587 3.128 1.102 4.845.891 7.939-.13.907-1.199.875-1.328 1.782-1.83-.518-3.078-1.62-4.86-2.203-2.819 4.082 4.698 5.087 2.657 8.392 1.652.842 4.39.615 3.531 3.969h3.532c.227-4.05 2.09-6.464 5.75-7.064 0-1.927.147-3.985-.453-5.297l-3.53 1.766c-2.917-2.9 1.23-5.184-.439-8.845.195-.972 2.171-.162 3.078-.438.357-2.106-.68-2.835-.42-4.86h-2.658c1.167-3.97 1.134-9.234.875-12.36 4.698-1.33 7.533-11.033 0-11.486.356-22.437 1.733-45.895-11.923-54.335q-.745-.081-.875.437c3.143 15.714 2.722 34.992 2.64 53.898-2.883 2.3-5.102 7.484-1.328 10.595m10.19-37.552c.632 10.206.454 24.38-1.328 30.05.518.94.907 2.026 1.328 3.079-1.539.68-4.034.389-6.188.454-1.345-1.556 1.215-2.058.874-3.986-.664-.94-1.91-1.312-1.765-3.078.518-17.593-.713-35.802-1.766-50.365 5.087 5.15 8.165 12.96 8.845 23.846m-22.518 48.6c-1.685 7.727-8.36 12.96-15.034 15.892-.567-4.293 1.134-10.854-.874-13.69-2.187 3.274.453 9.203-.454 14.128-3.775 3.499-5.702 16.977.891 19.002 3.661 1.134 8.132-1.717 9.72 2.64a17.82 17.82 0 0 1-14.143 0c-.777 1.005-3.11 2.755-4.86 1.33.924-2.382.6-7.34-.437-9.267-3.515-.486-6.836-1.118-7.938-3.985 1.814-.972 4.001-1.588 5.281-3.078.05-5.573-3.92-7.193-3.969-11.502-5.346-2.317-4.374-10.952-6.188-16.767-2.77 6.69 2.203 14.596 3.985 18.095-9.477-3.71-17.01-9.963-28.269-9.72-7.177.162-11.097 5.864-16.362 10.174-4.81 3.952-9.445 7.063-13.235 9.72v10.157c3.385 1.912 9.622 3.32 10.594 6.172-2.057-1.847-5.718 1.393-7.5-1.766-1.345 2.997-4.698 1.215-6.642 0-.89.713-.843 2.382-2.64 2.204-.26-2.025 2.672-4.666 1.781-8.83-.502-2.267-5.28-2.996-4.86-6.625.114-1.167 2.657-2.657 3.516-3.97 6.35-9.72-5.136-24.364-3.97-34.894.52-4.65 4.585-7.873 6.19-11.048-2.755-2.01-5.574-4.31-6.189-7.501-3.58-18.695 23.23-7.792 35.785-11.502.162-1.296.243-2.673 1.313-3.078.26.778-.519 2.592.453 2.64 2.35-.583 4.018-.566 4.86-2.203 1.296-2.56-1.57-4.957-.453-6.188 2.008-.373 1.036 2.22 2.656 2.22 9.396-.487 4.86-15.488-3.985-10.158-.065-1.247.39-3.03-.875-3.094-6.01.016-8.39 3.677-9.282 8.829-1.588-3.256-.859-8.845-2.203-12.36 15.973-6.027 30.115 10.108 18.55 21.189 1.75.777 2.753 5.15.436 6.188.05-1.944-1.539-2.268-3.078-2.657-7.808 8.198-38.96-4.924-41.52 5.75a11.34 11.34 0 0 0 1.312 7.065c5.945 8.974 34.732 1.555 48.6 4.422 1.23.55-2.139 2.527-.89 3.078h4.86c.323 1.96-1.33 4.245 0 5.75 2.461-1.084 4.648-2.43 7.062-3.53a24.3 24.3 0 0 0 5.75 4.422c-.08-2.3.908-3.515 1.313-5.313 2.381.437 1.944 3.645 3.985 4.422a8.1 8.1 0 0 1 1.33-3.97c1.133 2.107 2.817 3.662 4.405 5.299.275-1.2-.55-3.5.454-3.97 1.053 1.15 2.916 3.84 3.97 3.532.566-1.652.566-3.855 1.781-4.86.793.405 3.434 1.23 3.97.438-.325-1.62-1.8-4.374-1.33-5.298 7.906 5.022 15.018 13.69 12.36 26.066m-73.774-62.726c-3.078 1.166-6.934 3.483-4.86 8.39-2.349-.161-1.717-3.287-2.657-4.86-2.17 1.362-3.24 3.84-5.735 4.86-.259-1.181 1.296-2.753 0-3.53-6.528 1.782-11.453 14.045-19.002 6.625.632-1.134.048-3.5 1.782-3.531 2.17.162 1.41 3.288 2.64 4.406 10.304-4.86 16.265-14.061 27.832-17.658Zm43.724 11.485c3.434-.696 6.026-2.235 9.72-2.656.275 1.053-.55 3.207.437 3.53 2.025-.485 4.455-.55 5.751-1.765-1.15-.907-1.28-2.85-2.22-3.97-4.292-.614-7.403 2.3-10.157 1.767.616-.453 2.625-1.75 1.782-2.203-3.337.81-5.508 2.754-10.173 2.203.097-1.668 1.393-2.138 1.782-3.531-3.548-.891-8.764-.081-9.72-3.532.73-2.495 3.24-3.24 5.297-4.423-.13 2.625 1.701 3.289 3.532 3.97 1.296-1.2 1.733-3.257 4.406-3.08v2.642a37 37 0 0 1 5.298.89c.162-3.11 3.92-3.644 6.188-2.22.956 6.708 8.83 6.48 16.346 6.644.291-1.782 1.101-3.046 1.766-4.423 1.54-.356 1.7.648 3.078.437.583 8.878-5.508 17.772-13.236 12.798-2.154 2.852-4.244 5.768-6.626 8.408 2.754-.113-.437 3.11 0 4.86h8.392v-3.548c4.001 0 6.885-1.88 10.595-.874-.146 1.765.794 2.446.453 4.422-3.71.486-7.209 3.32-10.157.875-1.053 1.166-1.766 2.657-3.532 3.094-2.154-.972-5.767-1.474-6.642.89-.89-1.02-1.57-2.251-2.64-3.093-.389 1.23-.55 2.69-1.329 3.532-1.296-.616-1.506-2.333-3.53-2.22-.503 1.555-.973 3.16-2.204 3.985-.778-1.296-1.296-2.818-2.657-3.531a10.2 10.2 0 0 1-3.078 3.969 9.1 9.1 0 0 0-.89-4.407c-1.33 0-1.508 1.134-2.658 1.313-.486-.405-.13-1.62-1.328-1.313-2.317 1.215-3.597 3.467-7.5 3.078.112-5.022 3.336-6.966 6.625-8.83.048 1.135.81 1.557 1.328 2.205.826-.924 1.2-2.317 3.078-2.204 1.33 4.763 4.44 7.89 7.08 2.657.631.68.583 2.058 1.312 2.64 1.604-1.247 5.281-4.454 3.548-6.171-1.7.502-.94 3.483-3.095 3.53-.907-.566-.47-2.477-1.782-2.656-1.23 1.264-1.944 3.046-3.515 3.97.324-1.345-1.215-.843-.89-2.204.55-1.28 3.595-1.717 2.202-3.531-1.636.275-1.782 2.025-3.53 2.203-.163-1.296-.244-2.69-1.33-3.078-1.15.6-1.506 2.009-3.078 2.203-.518-.664-.55-1.814-1.328-2.203-2.155 2.268-4.698 4.13-7.063 6.172-.324-2.22.745-3.078.437-5.297 2.786-1.2 4.91-3.03 5.735-6.19.275 1.07-.55 3.209.453 3.549 1.782-.86 2.252-3.046 4.407-3.548.713.907.34 2.9 1.328 3.548.648-.664.794-1.863 1.766-2.22.05 1.135.81 1.556 1.328 2.22q.211-.891 1.33-.891c.047.81.29 1.474.874 1.766.94-.68 1.652-1.588 2.656-2.203a4.86 4.86 0 0 0 3.078 2.203c1.118-1.215 5.055-3.208 2.22-4.423.146 1.766-2.04 1.199-2.203 2.657-1.62-.308-2.155-1.67-3.548-2.203-.292.875-1.167 1.166-2.203 1.312-.81-2.786-2.738-.081-3.97-3.078.017.745-.34 1.134-.89 1.312-.713-.761-.21-2.721-1.329-3.078-1.182 1.296-2.04 2.949-3.969 3.532-.453-2.64-.13-6.06-1.328-7.954-1.62 4.843-1.329 11.63-7.063 12.36.89-7.193-1.782-11.73 1.782-17.22-1.248-1.556-3.078-2.544-3.11-5.298 5.507.648 4.454 7.906 12.376 6.189-.113 1.798-1.507 2.316-1.782 3.969 3.37-.098 7.29.29 8.408 0-.616.032-1.734 1.717-.89 1.765m-16.784-5.75c-4.018 5.232.13 11.08-1.782 17.657.81.114 2.22-.42 1.782.89-.68 2.107-1.604 5.509.437 6.643-.648.648-.713 1.928-.875 3.078-2.689 2.139-5.96 1.053-9.72.89-12.992-.598-30.618 1.75-38.426-2.202-1.345-2.478-3.078-5.735-1.329-8.845 11.535-4.617 29.29 3.775 40.63-2.64 1.053.712.502 3.029 1.328 3.968 2.82-1.782 4.65-6.35 2.204-9.72 2.802-2.592 4.082-8.748 3.531-13.251.535 1.377 1.912 1.928 2.22 3.53m30.472 4.424c-1.02-.146-1.685.065-2.203.437v-2.203h1.782q-.08 1.183.42 1.766m7.518 12.36c4.212.357 8.537-3.742 11.032-2.203-2.803 1.313-7.906 2.69-11.032 2.204m-1.329 3.985c-1.49-.276-4.098.567-4.86-.438.648-.68.713-1.944.891-3.094 1.33.276 3.791-.567 4.407.438-.972.194-.162 2.17-.438 3.078m-7.063 8.829c.437-.584.73-1.33 1.312-1.766.616 2.187 3.273 4.682 2.22 7.063-.276-1.037-2.722.08-3.095-.875-.275 1.49-.324 3.224-1.328 3.97q-1.944-2.48-4.423-4.407c-.259 1.053.567 3.19-.437 3.53-1.215-1.295-2.106-2.915-3.532-3.984-.664.81-.47 2.479-1.328 3.094-1.134-1.344-1.588-3.402-3.078-4.422-.972 2.122-1.393 4.81-3.094 6.188-1.215-1.442-2.997-2.3-4.423-3.531-1.587 1.215-3.612 1.976-5.297 3.078-.292-1.458.567-4.083-.438-4.86h-3.547c0-1.458 1.458-1.49 1.328-3.078 3.985 1.458 5.46-1.394 8.392-2.204.89 1.896 1.62.713 3.094 0 .405 1.799.437 3.97 1.328 5.298 1.345-1.458 2.22-3.37 3.97-4.423 1.085 1.264 1.57 3.143 3.093 3.985.438-1.944 1.54-3.191 2.204-4.86 1.782.438 2.543 1.88 3.985 2.64-.049-1.36.194-2.43.875-3.077.793.81 1.198 2.04 2.22 2.64m44.144 12.83c-.842 1.086-2.722 1.135-3.078 2.658-5.897 2.17-14.71-.357-11.94-5.735.34-.648 2.22-2.187 3.532-1.328.454 2.073-1.766 1.458-1.312 3.53 1.507 3.176 9.785 2.075 11.032-.436-.923-.843-2.333-1.2-2.203-3.078 2.446-2.463 4.78.875 3.97 4.406m-4.407 5.75c-1.944-.566-4.002.973-4.86 0 1.75-.452 2.268-2.137 4.86-1.765Zm-8.846 11.05c-3.645-.114-1.62 5.427-3.078 7.516-4.212.81-6.69 3.32-9.282 5.735-2.916-.632-5.395-1.668-7.063-3.531 2.527-1.88 3.888-4.958 5.734-7.517 2.333-6.788 10.06-10.546 14.143-14.127-1.993 2.69-1.976 8.068-.454 11.924m9.283-8.392c-1.426 1.07-4.423.583-5.75 1.766-1.167-3.37 4.778-3.354 5.75-1.766m-.437 3.969c-2.398-.324-3.58.55-5.75.454.452-2.22 3.271-2.042 5.75-2.22Zm-.89 1.782c.096.826-.487.972-.439 1.766-1.344-.292-3.807.55-4.422-.454 1.377-.826 2.98-2.284 4.86-1.328m2.656 5.297c-.064 1.264-3.029-.39-3.094.875-.146 2.057 0 3.823.875 4.86-3.532 1.57.016 9.477 3.532 6.626-1.36 3.207-5.346 3.79-5.298 8.39-1.685.358-.567-2.09-.875-3.077-.923-.275-2.916.535-3.094-.453.875-.454 1.88-.762 2.203-1.782-2.656-.114-3.936-1.653-5.297-3.078 1.685-.065 2.122 1.118 3.532 1.328.712-1.652 2.754-1.96 3.094-3.985-1.134-3.63-1.75-4.78-.875-8.83h-3.078v-3.077a11.34 11.34 0 0 1 8.392 2.203m-95.872 18.534c-.713 3.353.13 9.023 1.782 12.798 1.944 1.57 6.642.437 8.375 2.22-5.913 1.457-10.449-.52-16.783 1.312.21-3.467 1.28-6.075 1.33-9.72-.909-2.754-3.76-3.597-4.86-6.173.744-1.182 4.081.243 4.86-.89a8.42 8.42 0 0 0-1.33-7.94c5.022-3.676 7.825-9.557 15.91-10.172 1.7 8.78-7.939 12.215-9.284 18.565m-7.063-1.328c-1.49.275-4.115-.567-4.86.437a9.7 9.7 0 0 1 .437 3.985c4.893-.745 5.038 7.29 3.094 11.47-2.527-2.916-6.642-4.245-10.61-5.735v-8.83c4.18-1.88 7.08-5.021 11.048-7.08 1.36.73 1.895 4.068.89 5.753" vector-effect="non-scaling-stroke"/><path fill="ivory" d="M1024.908 985.737c0-.423.345-.745.75-.745h1.854a.73.73 0 0 1 .731.745v1.95a.736.736 0 0 1-.73.755h-1.855a.75.75 0 0 1-.75-.754Z"/><path fill="ivory" d="M1039.858 968.547h1.044l3.528 3.542a1.75 1.75 0 0 0 1.86.382 1.7 1.7 0 0 0 1.043-1.592v-2.705a3.9 3.9 0 0 0 1.38-.947 4.46 4.46 0 0 0 1.38-3.068v-5.378c0-1.095-.506-2.194-1.362-3.05a4.42 4.42 0 0 0-3.082-1.334h-.96v-2.336a4.46 4.46 0 0 0-1.349-3.082 4.46 4.46 0 0 0-3.068-1.362h-10.755a4.42 4.42 0 0 0-3.05 1.362 4.42 4.42 0 0 0-1.329 3.082v1.996h-8.418a4.163 4.163 0 0 0-4.117 4.218v30.613c0 2.342 1.84 4.269 4.122 4.269h19.025c2.277 0 4.108-1.932 4.108-4.27Zm-4.963-1.725c-1.344 0-2.742-1.32-2.742-2.663v-.25l2.116-2.032h6.003c1.095 0 2.213-.506 3.068-1.357a4.46 4.46 0 0 0 1.348-3.082v-1.311h.961c1.344 0 2.72 1.31 2.72 2.654v5.378c0 1.343-1.38 2.686-2.76 2.686v4.034l-3.994-4.057Zm-18.17-10.81h8.413v1.426c0 .327.028.68.11 1.007l-.009-.023-7.268.005a1.136 1.136 0 0 0-1.113 1.15v22.53a1.15 1.15 0 0 0 1.127 1.16h16.51a1.15 1.15 0 0 0 1.108-1.16l-.01-13.56h2.31v20.34c0 1.275-.938 2.315-2.153 2.315h-19.025c-1.21 0-2.167-1.04-2.167-2.314v-30.613a2.194 2.194 0 0 1 2.162-2.263m26.243 1.426c0 1.343-1.348 2.714-2.69 2.714h-6.72l-4.045 4.007v-4.007h.01-.01a2.5 2.5 0 0 1-1.477-.552 3.2 3.2 0 0 1-.947-1.182 2.3 2.3 0 0 1-.22-.98v-5.377c0-1.344 1.31-2.714 2.653-2.714h10.755c1.343 0 2.691 1.37 2.691 2.714Z"/></g><path fill="transparent" stroke="transparent" stroke-width="2.245" d="M508.429 258.429h983.142v983.142H508.43z"/></g></svg>